<svg width="80" height="80" viewBox="0 0 80 80" fill="none" xmlns="http://www.w3.org/2000/svg">
<rect width="80" height="80" rx="38" fill="#D0FFD4"/>
<g clip-path="url(#clip0_230_1032)">
<path d="M40.0007 16C26.7662 16 16 26.7662 16 39.9993C16 53.2324 26.7662 63.9986 40.0007 63.9986C53.2352 63.9986 64 53.2324 64 39.9993C64 26.7662 53.2338 16 40.0007 16ZM40.0007 61.0077C28.416 61.0077 18.9923 51.5826 18.9923 39.9993C18.9923 28.416 28.416 18.9909 40.0007 18.9909C51.5855 18.9909 61.0077 28.416 61.0077 39.9993C61.0077 51.5826 51.5826 61.0077 40.0007 61.0077Z" fill="black"/>
<path d="M44.5907 29.4881C44.2399 29.6783 44.1441 30.146 44.354 30.4856L44.8866 31.3421C45.0641 31.6281 45.4177 31.738 45.7361 31.6295C51.7236 29.591 56.0529 33.8287 56.2022 34.0865L56.6502 33.7273C54.9864 30.8209 49.0933 27.0495 44.5907 29.4881Z" fill="black"/>
<path d="M34.2189 31.6295C34.5373 31.738 34.8909 31.6295 35.0684 31.3421L35.5996 30.4856C35.8095 30.146 35.7137 29.6783 35.3629 29.4881C30.8603 27.0495 24.9658 30.8209 23.3033 33.7273L23.7514 34.0865C23.9021 33.8273 28.23 29.5896 34.2175 31.6295H34.2189Z" fill="black"/>
<path d="M34.0922 52.959C34.0922 52.959 33.7019 55.2962 36.8858 56.5346C38.5905 57.1967 40.615 57.3038 42.4253 56.8318C44.161 56.3796 46.17 55.3399 46.5264 52.9604L46.4334 52.9886C42.4775 54.2255 38.0369 54.2142 34.0907 52.9604L34.0922 52.959Z" fill="black"/>
<path d="M37.6593 40.2543L36.9563 40.6361C33.7723 42.3662 29.7924 42.4577 26.5127 40.8742L25.2264 40.2529C25.2264 40.2529 24.8601 43.1467 28.3892 44.4709C30.4109 45.2289 32.7495 45.1979 34.7078 44.3202C36.1842 43.6581 37.6607 42.4479 37.6607 40.2529L37.6593 40.2543Z" fill="black"/>
<path d="M53.8241 40.8743C50.5444 42.4564 46.5644 42.3662 43.3805 40.6362L42.6775 40.2544C42.6775 42.4479 44.1539 43.6595 45.6304 44.3217C47.5886 45.1994 49.9273 45.2304 51.949 44.4724C55.4781 43.1495 55.1118 40.2544 55.1118 40.2544L53.8255 40.8757L53.8241 40.8743Z" fill="black"/>
</g>
<defs>
<clipPath id="clip0_230_1032">
<rect width="48" height="48" fill="white" transform="translate(16 16)"/>
</clipPath>
</defs>
</svg>
