<svg width="80" height="80" viewBox="0 0 80 80" fill="none" xmlns="http://www.w3.org/2000/svg">
<rect width="80" height="80" rx="38" fill="#E9E9E9"/>
<g clip-path="url(#clip0_230_1035)">
<path d="M40.0007 16C26.7662 16 16 26.7662 16 39.9993C16 53.2324 26.7662 63.9986 40.0007 63.9986C53.2352 63.9986 64 53.2324 64 39.9993C64 26.7662 53.2338 16 40.0007 16ZM40.0007 61.0077C28.416 61.0077 18.9923 51.5826 18.9923 39.9993C18.9923 28.416 28.416 18.9909 40.0007 18.9909C51.5855 18.9909 61.0077 28.416 61.0077 39.9993C61.0077 51.5826 51.5826 61.0077 40.0007 61.0077Z" fill="black"/>
<path d="M40.0007 49.6059C34.8318 49.6538 33.4103 52.7997 33.0116 54.4325C32.8876 54.9411 33.3736 55.3539 33.8287 55.1454C39.0977 52.7194 43.7243 54.0141 45.9291 54.9468C46.5687 55.2173 47.228 54.5889 47.0322 53.8887C46.4968 51.9713 44.2159 49.5679 40.0007 49.6059Z" fill="black"/>
<path d="M55.3245 43.7677C52.0814 40.0005 46.2418 40.0005 46.2418 40.0005C44.9711 40.5711 44.8175 41.4403 44.9612 42.1405C45.0936 42.7871 45.6431 43.2816 46.2968 43.3662C49.3271 43.7578 52.3223 44.9849 52.3223 44.9849C57.2687 46.9305 55.3231 43.7691 55.3231 43.7691L55.3245 43.7677Z" fill="black"/>
<path d="M35.3657 42.1405C35.5094 41.4403 35.3559 40.5697 34.0851 40.0005C34.0851 40.0005 28.2469 40.0005 25.0024 43.7677C25.0024 43.7677 23.0568 46.9305 28.0032 44.9835C28.0032 44.9835 30.9998 43.7564 34.0288 43.3648C34.6839 43.2802 35.2319 42.7857 35.3643 42.1391L35.3657 42.1405Z" fill="black"/>
</g>
<defs>
<clipPath id="clip0_230_1035">
<rect width="48" height="48" fill="white" transform="translate(16 16)"/>
</clipPath>
</defs>
</svg>
