<svg width="80" height="80" viewBox="0 0 80 80" fill="none" xmlns="http://www.w3.org/2000/svg">
<rect width="80" height="80" rx="38" fill="#FFBAA4"/>
<g clip-path="url(#clip0_230_1033)">
<path d="M62.6935 28.8622H60.5192C56.6519 21.225 48.9517 16 40.0894 16C31.2271 16 23.5283 21.225 19.661 28.8622H17.3065C16.5845 28.8622 16 29.4714 16 30.2207V32.4843C16 32.8932 16.3191 33.225 16.7124 33.225H17.3574C17.312 33.7369 17.3065 34.2574 17.3918 34.7836C17.4152 34.9252 17.4482 35.0481 17.4743 35.1854C17.169 36.7412 17.0067 38.3513 17.0067 40C17.0067 53.234 27.3626 64 40.0894 64C52.8162 64 63.1735 53.234 63.1735 40C63.1735 37.7922 62.8613 35.6616 62.3222 33.6296C62.329 33.4952 62.3345 33.3594 62.3345 33.225H63.2876C63.6809 33.225 64 32.8932 64 32.4843V30.2207C64 29.4714 63.4141 28.8622 62.6935 28.8622ZM58.5539 31.6077C58.8578 32.327 59.1315 33.0634 59.3571 33.8213C58.9142 37.0486 57.5211 38.8189 57.4757 38.8746C57.4454 38.9133 54.3634 42.8198 49.8773 41.4571C45.354 40.0829 44.1176 34.6235 44.0928 34.5133L44.0337 34.3046C43.6472 33.2307 44.2139 32.6859 44.6319 32.47C52.4765 29.6301 56.5804 30.6111 58.3297 31.4504C58.4136 31.4905 58.4783 31.5548 58.5539 31.6077ZM40.0894 19.0357C46.8035 19.0357 52.7461 22.479 56.4126 27.7426C53.5465 27.2807 49.4097 27.5281 43.5647 29.6459C43.2429 29.7931 42.9087 30.0162 42.5883 30.2865H36.819C36.2331 29.7231 35.5358 29.2684 34.7327 28.9995C30.6013 27.6139 27.0022 27.0991 23.9794 27.4466C27.661 22.3518 33.5032 19.0357 40.0894 19.0357ZM21.8807 31.0572C21.9866 31.0043 22.0911 30.95 22.2053 30.9113C23.0813 30.6182 24.2751 30.3823 25.8525 30.3823C27.8549 30.3823 30.4734 30.7626 33.836 31.8894C34.972 32.2698 35.7366 33.418 35.6871 34.6449C35.5125 35.3727 34.1413 40.469 29.8298 41.8132C25.3409 43.2145 22.2616 39.2836 22.1062 39.082C22.0939 39.0663 21.0555 37.7278 20.4697 35.2498C20.797 33.7855 21.2742 32.3856 21.8807 31.0572ZM40.0894 60.9643C29.354 60.9643 20.5769 52.1873 19.9842 41.1768C20.6484 41.9819 23.5434 45.1592 27.87 45.1592C28.7461 45.1592 29.6827 45.0291 30.6687 44.7216C37.0156 42.7426 38.5518 35.2512 38.567 35.1754L38.5917 34.9895C38.5958 34.9395 38.589 34.8908 38.5917 34.8408H41.1635C41.1992 34.9852 41.213 35.1225 41.2639 35.2712C41.4881 36.2364 43.1769 42.5839 49.0576 44.3713C50.0299 44.6659 50.9514 44.7931 51.8164 44.7931C56.5817 44.7917 59.5977 40.9766 59.7133 40.8251C59.7394 40.7936 59.9594 40.5148 60.2496 40.05C60.2235 51.5853 51.1907 60.9643 40.0894 60.9643Z" fill="black"/>
<path d="M59.3571 33.8214C58.9143 37.0487 57.5211 38.819 57.4757 38.8748C57.4455 38.9134 54.3635 42.8199 49.8773 41.4572C45.354 40.083 44.1176 34.6236 44.0929 34.5135L44.0338 34.3047C43.6473 33.2308 44.2139 32.686 44.632 32.4701C52.4766 29.6302 56.5804 30.6112 58.3298 31.4505C58.4137 31.4906 58.4783 31.5549 58.554 31.6078C58.8579 32.3271 59.1316 33.0635 59.3571 33.8214Z" fill="black"/>
<path d="M35.6871 34.645C35.5124 35.3728 34.1413 40.4691 29.8298 41.8132C25.3408 43.2145 22.2616 39.2837 22.1062 39.082C22.0938 39.0663 21.0555 37.7279 20.4696 35.2498C20.7969 33.7856 21.2741 32.3857 21.8806 31.0573C21.9865 31.0043 22.0911 30.95 22.2052 30.9114C23.0813 30.6183 24.275 30.3823 25.8524 30.3823C27.8549 30.3823 30.4734 30.7627 33.8359 31.8895C34.9719 32.2698 35.7366 33.4181 35.6871 34.645Z" fill="black"/>
<path d="M49.5169 46.5863C46.4322 48.501 38.3785 52.2946 29.9687 46.359C29.585 46.0887 29.0762 46.3947 29.1573 46.8666C29.5479 49.123 31.3715 53.8532 39.7621 54.4896C39.7621 54.4896 48.099 54.4953 50.426 47.3728C50.6117 46.8065 50.012 46.2789 49.5156 46.5878L49.5169 46.5863Z" fill="black"/>
</g>
<defs>
<clipPath id="clip0_230_1033">
<rect width="48" height="48" fill="white" transform="translate(16 16)"/>
</clipPath>
</defs>
</svg>
