<svg width="80" height="80" viewBox="0 0 80 80" fill="none" xmlns="http://www.w3.org/2000/svg">
<rect width="80" height="80" rx="38" fill="#FFF9A7"/>
<g clip-path="url(#clip0_230_1027)">
<path d="M40 16C26.766 16 16 26.766 16 40C16 53.234 26.766 64 40 64C53.234 64 64 53.234 64 40C64 26.766 53.234 16 40 16ZM40 60.9643C28.4404 60.9643 19.0357 51.5596 19.0357 40C19.0357 28.4404 28.4404 19.0357 40 19.0357C51.5596 19.0357 60.9643 28.4404 60.9643 40C60.9643 51.5596 51.5596 60.9643 40 60.9643Z" fill="black"/>
<path d="M33.4094 38.8588C35.0682 38.8588 36.4137 36.2978 36.4137 33.1377C36.4137 29.9775 35.0682 27.4165 33.4094 27.4165C31.7507 27.4165 30.4052 29.9775 30.4052 33.1377C30.4052 36.2978 31.7507 38.8588 33.4094 38.8588Z" fill="black"/>
<path d="M46.5777 38.8588C48.2364 38.8588 49.5819 36.2978 49.5819 33.1377C49.5819 29.9775 48.2364 27.4165 46.5777 27.4165C44.9189 27.4165 43.5734 29.9775 43.5734 33.1377C43.5734 36.2978 44.9189 38.8588 46.5777 38.8588Z" fill="black"/>
<path d="M53.9791 41.1866C48.3652 43.9693 39.9486 43.6233 39.9486 43.6233C39.9486 43.6233 31.532 43.9707 25.9181 41.1866C25.5935 41.0265 25.2346 41.2753 25.2689 41.6471C25.5463 44.6914 27.4081 55.0985 39.9071 55.8949C39.9343 55.8964 39.9643 55.8964 39.99 55.8949C52.4891 55.0985 54.3509 44.6914 54.6283 41.6471C54.6626 41.2767 54.3037 41.0265 53.9791 41.1866ZM40.0001 49.0927C27.3366 48.5165 26.5358 43.1113 26.5358 43.1113C41.1869 48.159 53.1497 43.2758 53.1497 43.2758C50.5701 49.1042 40.0015 49.0927 40.0015 49.0927H40.0001Z" fill="black"/>
</g>
<defs>
<clipPath id="clip0_230_1027">
<rect width="48" height="48" fill="white" transform="translate(16 16)"/>
</clipPath>
</defs>
</svg>
