<svg width="80" height="80" viewBox="0 0 80 80" fill="none" xmlns="http://www.w3.org/2000/svg">
<rect width="80" height="80" rx="38" fill="#FFF2F2"/>
<g clip-path="url(#clip0_230_1031)">
<path d="M40.0007 16C26.7662 16 16 26.7662 16 40.0007C16 53.2352 26.7662 64 40.0007 64C53.2352 64 64 53.2338 64 40.0007C64 26.7676 53.2338 16 40.0007 16ZM40.0007 61.0091C28.416 61.0091 18.9923 51.584 18.9923 40.0007C18.9923 28.4174 28.416 18.9909 40.0007 18.9909C51.5855 18.9909 61.0077 28.416 61.0077 39.9993C61.0077 51.5826 51.5826 61.0077 40.0007 61.0077V61.0091Z" fill="black"/>
<path d="M48.3099 48.7129H32.362C31.6154 48.7129 31.011 49.3173 31.011 50.064C31.011 50.8106 31.6168 51.415 32.362 51.415H48.3099C49.0566 51.415 49.661 50.8092 49.661 50.064C49.661 49.3187 49.0552 48.7129 48.3099 48.7129Z" fill="black"/>
<path d="M32.5396 40.0009C34.3868 40.0009 35.8842 37.9857 35.8842 35.4997C35.8842 33.0138 34.3868 30.9985 32.5396 30.9985C30.6925 30.9985 29.1951 33.0138 29.1951 35.4997C29.1951 37.9857 30.6925 40.0009 32.5396 40.0009Z" fill="black"/>
<path d="M47.4604 40.0009C49.3075 40.0009 50.8049 37.9857 50.8049 35.4997C50.8049 33.0138 49.3075 30.9985 47.4604 30.9985C45.6132 30.9985 44.1158 33.0138 44.1158 35.4997C44.1158 37.9857 45.6132 40.0009 47.4604 40.0009Z" fill="black"/>
</g>
<defs>
<clipPath id="clip0_230_1031">
<rect width="48" height="48" fill="white" transform="translate(16 16)"/>
</clipPath>
</defs>
</svg>
