<svg width="80" height="80" viewBox="0 0 80 80" fill="none" xmlns="http://www.w3.org/2000/svg">
<rect width="80" height="80" rx="38" fill="#D2F4FF"/>
<g clip-path="url(#clip0_230_1028)">
<path d="M45.9938 52.3861C45.5429 52.05 45.0751 51.7555 44.5946 51.5009C40.4094 49.2731 35.2716 50.051 31.7445 53.856L31.5909 54.0219C31.1893 54.4566 30.5509 54.4409 30.1648 53.989L29.6505 53.3856C29.2644 52.9323 29.2771 52.213 29.6801 51.7798L30.5439 50.8489C33.124 48.0662 36.413 46.6792 39.6992 46.6792C41.7072 46.6792 43.7138 47.1968 45.557 48.2321C45.96 48.4566 46.356 48.7083 46.7421 48.9857C46.2165 50.121 45.8543 51.3379 45.9938 52.3861Z" fill="black"/>
<path d="M40.0007 16C26.7659 16 16 26.766 16 40C16 53.234 26.7659 64 40.0007 64C53.2355 64 64 53.234 64 40C64 26.766 53.2341 16 40.0007 16ZM40.0007 61.04C28.4316 61.04 19.0184 51.601 19.0184 40C19.0184 28.399 28.4301 18.96 40.0007 18.96C51.5713 18.96 60.9816 28.399 60.9816 40C60.9816 51.601 51.5699 61.04 40.0007 61.04Z" fill="black"/>
<path d="M31.2935 41.3343C33.1367 41.3343 34.6304 39.4254 34.6304 37.0717C34.6304 34.718 33.1367 32.8091 31.2935 32.8091C29.4504 32.8091 27.9567 34.718 27.9567 37.0717C27.9567 39.4254 29.4504 41.3343 31.2935 41.3343Z" fill="black"/>
<path d="M48.9404 32.8091C47.0972 32.8091 45.6035 34.718 45.6035 37.0717C45.6035 39.4254 47.0972 41.3343 48.9404 41.3343C50.7836 41.3343 52.2773 39.4254 52.2773 37.0717C52.2773 34.718 50.7836 32.8091 48.9404 32.8091Z" fill="black"/>
<path d="M49.156 42.5054C49.156 42.5054 46.9112 45.1922 45.557 48.2323C45.0765 49.3119 44.7087 50.4372 44.5946 51.5011C44.3987 53.3028 44.9299 54.9315 46.8718 55.8767C48.3175 56.5802 49.9944 56.5802 51.4388 55.8767C57.7546 52.8052 49.156 42.5054 49.156 42.5054ZM50.785 54.5068C49.7732 55.0001 48.598 55.0001 47.5862 54.5068C46.5758 54.0163 46.1108 53.2599 45.9939 52.3862C45.8543 51.3381 46.2165 50.1212 46.7421 48.9858C47.6947 46.9253 49.1856 45.1393 49.1856 45.1393C49.1856 45.1393 55.2097 52.3548 50.785 54.5068Z" fill="black"/>
</g>
<defs>
<clipPath id="clip0_230_1028">
<rect width="48" height="48" fill="white" transform="translate(16 16)"/>
</clipPath>
</defs>
</svg>
