<svg width="80" height="80" viewBox="0 0 80 80" fill="none" xmlns="http://www.w3.org/2000/svg">
<rect width="80" height="80" rx="38" fill="#FFD9A4"/>
<g clip-path="url(#clip0_230_1030)">
<path d="M40 16C26.766 16 16 26.766 16 40C16 53.234 26.766 64 40 64C53.234 64 64 53.234 64 40C64 26.766 53.234 16 40 16ZM40 60.9643C28.4404 60.9643 19.0357 51.5596 19.0357 40C19.0357 28.4404 28.4404 19.0357 40 19.0357C51.5596 19.0357 60.9643 28.4404 60.9643 40C60.9643 51.5596 51.5596 60.9643 40 60.9643Z" fill="black"/>
<path d="M30.5252 29.2769C30.5252 29.2769 30.4437 34.9308 23.8889 38.6043C25.9409 39.9999 33.5181 35.916 30.5252 29.2769Z" fill="black"/>
<path d="M48.1892 29.2568C45.1978 35.896 52.775 39.9799 54.8255 38.5843C48.2707 34.9122 48.1892 29.2568 48.1892 29.2568Z" fill="black"/>
<path d="M40.4962 49.7334H39.7598C36.2207 49.7334 33.3508 52.4846 33.3508 55.8793C33.3508 55.8793 39.9571 53.2968 46.9052 55.8793C46.9052 52.4846 44.0367 49.7334 40.4962 49.7334Z" fill="black"/>
<path d="M35.6286 41.9502C36.0019 39.5837 35.0481 37.4674 33.498 37.2229C31.948 36.9783 30.3879 38.6986 30.0147 41.0637C29.6415 43.4302 30.5953 45.5465 32.1453 45.791C33.6954 46.0355 35.2554 44.3153 35.6286 41.9502Z" fill="black"/>
<path d="M45.1149 37.2243C43.5649 37.4689 42.6111 39.5852 42.9843 41.9517C43.3575 44.3182 44.9176 46.037 46.4676 45.7925C48.0177 45.548 48.9715 43.4317 48.5982 41.0651C48.225 38.6986 46.665 36.9798 45.1149 37.2243Z" fill="black"/>
</g>
<defs>
<clipPath id="clip0_230_1030">
<rect width="48" height="48" fill="white" transform="translate(16 16)"/>
</clipPath>
</defs>
</svg>
