<svg width="80" height="80" viewBox="0 0 80 80" fill="none" xmlns="http://www.w3.org/2000/svg">
<rect width="80" height="80" rx="38" fill="#C2CAFF"/>
<g clip-path="url(#clip0_230_1034)">
<path d="M45.8732 17.9803V17.9584H45.7859C43.9291 17.5082 41.9977 17.242 40 17.242C39.4562 17.242 38.9223 17.2873 38.3869 17.3216V16H31.4346V18.0503L33.907 18.0352C32.3616 18.4318 30.881 18.9712 29.4736 19.6436V18.3481H19.8319V21.1793L23.9498 21.1546C24.5358 21.1464 25.0092 21.1299 25.367 21.1066C25.0232 21.4867 24.4921 22.1317 23.7751 23.0389L22.4184 24.764C21.397 25.8371 20.4799 27.0009 19.6783 28.2457L19.405 28.5929V28.6834C17.2566 32.1816 16 36.2562 16 40.6217C16 53.5137 26.7659 64 40 64C53.2341 64 64 53.5123 64 40.6217C64 29.7072 56.2714 20.5425 45.8732 17.9803ZM40 61.0851C28.4156 61.0851 18.9923 51.9039 18.9923 40.6203C18.9923 37.2429 19.8502 34.0631 21.3435 31.2525H29.8131V28.2511H25.0373C24.8317 28.2511 24.3005 28.28 23.444 28.3362L25.0162 26.452L25.4642 25.8811C27.5083 23.968 29.9469 22.4639 32.6476 21.4758L31.1261 23.4163V25.3431H38.6335V23.1706H35.189C35.0411 23.1706 34.6593 23.1912 34.0409 23.2324L35.1735 21.8696L36.2386 20.5055C37.4614 20.2887 38.7152 20.1583 40 20.1583C41.0636 20.1583 42.1019 20.2612 43.1233 20.4094C43.0232 20.5521 42.9317 20.6812 42.8119 20.8541L40.4649 24.2809V25.9236H46.0564V24.0709H43.4896C43.3797 24.0709 43.0951 24.0887 42.6344 24.1231L43.4769 22.9607L44.9772 20.7621C54.1625 22.9483 61.0063 31.011 61.0063 40.6217C61.0063 51.9053 51.5816 61.0865 39.9986 61.0865L40 61.0851Z" fill="black"/>
<path d="M36.5429 37.2184C36.0329 39.0601 33.7366 40.4503 30.9768 40.4503C28.062 40.4503 25.6896 38.8954 25.3656 36.9014C25.3402 37.0935 25.3008 37.2801 25.3008 37.4778C25.3008 40.2596 27.8239 42.5144 30.9373 42.5144C34.0507 42.5144 36.5738 40.2596 36.5738 37.4778C36.5738 37.3886 36.5499 37.3062 36.5443 37.2184H36.5429Z" fill="black"/>
<path d="M55.3966 37.2184C54.8866 39.0601 52.5903 40.4503 49.8305 40.4503C46.9158 40.4503 44.5434 38.8954 44.2193 36.9014C44.194 37.0935 44.1545 37.2801 44.1545 37.4778C44.1545 40.2596 46.6777 42.5144 49.7911 42.5144C52.9045 42.5144 55.4276 40.2596 55.4276 37.4778C55.4276 37.3886 55.4037 37.3062 55.398 37.2184H55.3966Z" fill="black"/>
<path d="M40.4565 46.0288C38.2165 46.0288 36.402 47.7978 36.402 49.9785C36.402 52.1592 38.2179 53.9282 40.4565 53.9282C42.695 53.9282 44.5109 52.1592 44.5109 49.9785C44.5109 47.7978 42.695 46.0288 40.4565 46.0288Z" fill="black"/>
</g>
<defs>
<clipPath id="clip0_230_1034">
<rect width="48" height="48" fill="white" transform="translate(16 16)"/>
</clipPath>
</defs>
</svg>
