<svg width="80" height="80" viewBox="0 0 80 80" fill="none" xmlns="http://www.w3.org/2000/svg">
<rect width="80" height="80" rx="38" fill="#FFCBCB"/>
<g clip-path="url(#clip0_230_1029)">
<path d="M40.4769 49.9091C35.308 49.957 33.8865 53.1029 33.4878 54.7358C33.3638 55.2444 33.8498 55.6571 34.3049 55.4486C39.5739 53.0226 44.2005 54.3173 46.4053 55.25C47.0449 55.5205 47.7042 54.8921 47.5084 54.192C46.973 52.2745 44.6921 49.8711 40.4769 49.9091Z" fill="black"/>
<path d="M39.9993 16C26.7648 16 16 26.7662 16 39.9993C16 53.2324 26.7648 63.9986 39.9993 63.9986C53.2338 63.9986 64 53.2324 64 39.9993C64 26.7662 53.2324 16 39.9993 16ZM39.9993 61.0077C28.416 61.0077 18.9923 51.5826 18.9923 39.9993C18.9923 28.416 28.416 18.9909 39.9993 18.9909C51.5826 18.9909 61.0077 28.416 61.0077 39.9993C61.0077 51.5826 51.5826 61.0077 39.9993 61.0077Z" fill="black"/>
<path d="M36.4941 39.9991C36.635 39.4369 36.4462 38.8537 36.0095 38.4719C34.4063 37.0743 30.1629 34.2426 29.0711 33.6086C27.3946 32.6351 27.9891 34.2032 27.9891 34.2032C30.4757 35.6444 30.0248 36.5164 29.629 36.7559C29.288 36.963 29.1077 37.3716 29.0584 37.7675C27.906 46.8262 31.7746 46.3669 31.7746 46.3669C34.7148 46.243 36.0363 41.8305 36.4956 39.9976L36.4941 39.9991Z" fill="black"/>
<path d="M51.4318 33.6102C50.34 34.2441 46.0966 37.0759 44.4934 38.4734C44.0567 38.8538 43.8679 39.4371 44.0088 40.0006C44.4666 41.8335 45.7895 46.2459 48.7297 46.3699C48.7297 46.3699 52.5969 46.8277 51.4445 37.7704C51.3938 37.3745 51.2149 36.966 50.8739 36.7589C50.4781 36.518 50.0272 35.6473 52.5138 34.2061C52.5138 34.2061 53.1083 32.6381 51.4318 33.6116V33.6102Z" fill="black"/>
</g>
<defs>
<clipPath id="clip0_230_1029">
<rect width="48" height="48" fill="white" transform="translate(16 16)"/>
</clipPath>
</defs>
</svg>
