<svg width="277" height="144" viewBox="0 0 277 144" fill="none" xmlns="http://www.w3.org/2000/svg">
<path d="M194.12 78.2998C210.976 78.2998 224.64 64.6355 224.64 47.7798C224.64 30.924 210.976 17.2598 194.12 17.2598C177.264 17.2598 163.6 30.924 163.6 47.7798C163.6 64.6355 177.264 78.2998 194.12 78.2998Z" stroke="#F3C38F" stroke-width="4.5" stroke-miterlimit="10"/>
<path d="M194.12 29.23C194.12 29.23 211.82 30.02 210.24 49.21" stroke="#F3C38F" stroke-width="4.5" stroke-miterlimit="10"/>
<path d="M251.56 48.78C264.202 48.78 274.45 38.5318 274.45 25.89C274.45 13.2482 264.202 3 251.56 3C238.918 3 228.67 13.2482 228.67 25.89C228.67 38.5318 238.918 48.78 251.56 48.78Z" stroke="#F3C38F" stroke-width="4.5" stroke-miterlimit="10"/>
<path d="M251.56 11.9702C251.56 11.9702 264.83 12.5602 263.65 26.9602" stroke="#F3C38F" stroke-width="4.5" stroke-miterlimit="10"/>
<path d="M69.72 21.26C68.7 30.9 63.97 56.76 58.04 69.65C57.21 71.5 55.26 72.06 48.77 72.06C44.51 72.06 42.37 71.78 42.47 70.21C42.75 63.35 42.56 40.82 39.13 21.64C38.85 19.88 38.3 19.51 37.55 19.51C36.44 19.51 35.97 20.53 35.97 22.38C35.97 28.31 36.99 41.1 36.99 48.61C36.99 63.9 33.37 73.73 16.87 73.73C3.8 73.54 0 67.98 0 53.43C0 50.74 0.739995 47.78 2.68999 47.78C3.33999 47.78 4.07999 48.34 4.07999 49.26C4.07999 50.65 3.06 52.04 3.06 54.08C3.06 56.86 5.38 58.07 10.66 58.07C24.84 58.07 32.72 45.74 32.72 24.61C32.72 15.99 31.33 13.12 28.27 13.12C23.17 13.12 17.52 22.3 17.52 36.76C17.52 40 18.35 40.75 20.02 40.75C21.97 40.75 22.99 37.69 22.99 35C22.99 32.31 22.62 30.83 22.62 30.18C22.62 28.79 23.45 27.96 24.47 27.96C25.95 27.96 26.6 28.61 26.6 30.56C26.6 44 21.32 48.82 13.34 48.82C4.63 48.82 2.03 43.44 2.03 35.1C2.03 16.56 15.47 9.52002 35.77 9.52002C57.28 9.52002 59.31 11.1 59.31 15.08C59.31 21.57 56.81 32.97 56.81 45.21C56.81 47.34 57.64 47.9 58.76 47.9C60.15 47.9 60.52 46.88 61.17 44.93C62.75 39.83 65.99 25 66.73 13.41C66.92 10.72 68.21 10.17 70.25 10.17C72.94 10.17 78.96 10.63 81.56 10.63C87.22 10.63 92.68 10.17 93.52 10.17C95.65 10.17 96.21 11 96.21 12.86C96.21 17.68 91.39 49.66 91.39 62.45C91.39 67.46 92.41 67.83 92.41 70.33C92.41 71.35 91.67 72.09 90.93 72.09C88.98 72.09 83.79 71.63 78.05 71.63C74.06 71.63 64.89 72.09 63.87 72.09C62.2 72.09 61.92 70.98 61.92 69.77C61.92 68.1 62.94 67.45 64.14 67.45C64.7 67.45 65.25 67.82 65.9 67.82C68.59 67.82 69.89 63.83 71.37 50.02C72.85 37.41 73.41 26.66 73.41 22.12C73.41 20.08 73.04 19.34 71.46 19.34C70.44 19.34 69.79 20.08 69.7 21.29L69.72 21.26Z" fill="#A9D7E6"/>
<path d="M103.65 51.9402C103.65 45.4502 107.64 38.3102 107.64 32.8402C107.64 30.7102 106.9 29.8702 105.42 29.8702C104.21 29.8702 103.29 30.8902 102.92 32.8402C102.64 34.1402 102.64 35.0602 102.55 35.5302C102.36 36.6402 101.81 37.2902 100.79 37.2902C99.68 37.2902 98.84 36.7302 98.84 34.6002C98.84 25.0502 104.68 20.7002 114.32 20.7002C123.96 20.7002 126.19 25.0602 126.19 31.7302C126.19 37.4802 122.95 44.6102 122.95 48.9702C122.95 51.1002 123.78 52.4002 125.64 52.4002C128.33 52.4002 130.09 50.2702 132.13 45.1702C134.08 39.2402 135.1 31.5402 136.02 24.8702C136.39 22.3702 137.23 21.6302 139.08 21.6302C141.67 21.6302 146.87 25.1502 151.13 25.1502C152.34 25.1502 153.26 24.5902 153.26 23.2002V22.6402C153.26 21.4302 154.19 20.9702 155.39 20.9702C157.43 20.9702 157.8 22.2702 157.8 23.5702C157.8 30.1502 153.91 46.3702 152.89 61.3902C151.87 76.2202 145.57 85.0302 121.56 85.0302C106.27 85.0302 101.63 80.5802 101.63 75.1102C101.63 69.6402 106.26 66.3002 113.96 66.3002C120.45 66.3002 124.62 68.2502 124.62 72.4202C124.62 78.2602 118.32 77.8002 118.32 80.2102C118.32 80.8602 118.69 81.3202 119.99 81.3202C129.26 81.3202 135.56 65.6502 135.56 51.7502C135.56 50.6402 134.91 50.3602 134.26 50.3602C133.43 50.3602 132.96 50.6402 132.68 51.8402C130.92 59.4402 127.67 63.8002 117.57 63.8002C107.47 63.8002 103.66 58.6102 103.66 51.9302L103.65 51.9402Z" fill="#A9D7E6"/>
<path d="M69.72 91.2C68.7 100.84 63.97 126.7 58.04 139.59C57.21 141.44 55.26 142 48.77 142C44.51 142 42.37 141.72 42.47 140.15C42.75 133.29 42.56 110.76 39.13 91.58C38.85 89.82 38.3 89.45 37.55 89.45C36.44 89.45 35.97 90.47 35.97 92.32C35.97 98.25 36.99 111.04 36.99 118.55C36.99 133.84 33.37 143.67 16.87 143.67C3.8 143.48 0 137.92 0 123.37C0 120.68 0.739995 117.72 2.68999 117.72C3.33999 117.72 4.07999 118.28 4.07999 119.2C4.07999 120.59 3.06 121.98 3.06 124.02C3.06 126.8 5.38 128.01 10.66 128.01C24.84 128.01 32.72 115.68 32.72 94.55C32.72 85.93 31.33 83.06 28.27 83.06C23.17 83.06 17.52 92.24 17.52 106.7C17.52 109.94 18.35 110.69 20.02 110.69C21.97 110.69 22.99 107.63 22.99 104.94C22.99 102.25 22.62 100.77 22.62 100.12C22.62 98.73 23.45 97.9 24.47 97.9C25.95 97.9 26.6 98.55 26.6 100.5C26.6 113.94 21.32 118.76 13.34 118.76C4.63 118.76 2.03 113.38 2.03 105.04C2.03 86.5 15.47 79.46 35.77 79.46C57.28 79.46 59.31 81.04 59.31 85.02C59.31 91.51 56.81 102.91 56.81 115.15C56.81 117.28 57.64 117.84 58.76 117.84C60.15 117.84 60.52 116.82 61.17 114.87C62.75 109.77 65.99 94.94 66.73 83.35C66.92 80.66 68.21 80.1 70.25 80.1C72.94 80.1 78.96 80.56 81.56 80.56C87.22 80.56 92.68 80.1 93.52 80.1C95.65 80.1 96.21 80.93 96.21 82.79C96.21 87.61 91.39 119.59 91.39 132.38C91.39 137.39 92.41 137.76 92.41 140.26C92.41 141.28 91.67 142.02 90.93 142.02C88.98 142.02 83.79 141.56 78.05 141.56C74.06 141.56 64.89 142.02 63.87 142.02C62.2 142.02 61.92 140.91 61.92 139.7C61.92 138.03 62.94 137.38 64.14 137.38C64.7 137.38 65.25 137.75 65.9 137.75C68.59 137.75 69.89 133.76 71.37 119.95C72.85 107.34 73.41 96.59 73.41 92.05C73.41 90.01 73.04 89.27 71.46 89.27C70.44 89.27 69.79 90.01 69.7 91.22L69.72 91.2Z" fill="#A9D7E6"/>
<path d="M122.19 143.02C105.23 143.02 98.37 134.86 98.37 121.79C98.37 102.6 108.01 90.0898 126.64 90.0898C139.43 90.0898 149.63 96.8598 149.63 113.45C149.63 130.04 144.81 143.02 122.19 143.02ZM130.91 102.14C130.91 96.2998 129.61 94.3498 127.11 94.3498C121.83 94.3498 117.93 109 117.93 127.26C117.93 132.82 119.14 135.05 122.29 135.05C128.41 135.05 130.91 120.03 130.91 102.14Z" fill="#A9D7E6"/>
<path d="M176.98 143.02C160.02 143.02 153.16 134.86 153.16 121.79C153.16 102.6 162.8 90.0898 181.43 90.0898C194.22 90.0898 204.42 96.8598 204.42 113.45C204.42 130.04 199.6 143.02 176.98 143.02ZM185.69 102.14C185.69 96.2998 184.39 94.3498 181.89 94.3498C176.61 94.3498 172.71 109 172.71 127.26C172.71 132.82 173.92 135.05 177.07 135.05C183.19 135.05 185.69 120.03 185.69 102.14Z" fill="#A9D7E6"/>
<path d="M243.72 85.7299C242.98 85.7299 242.51 86.1899 242.24 87.0299C242.05 87.2199 241.96 87.6799 241.78 87.8599C241.5 88.4199 241.04 88.7899 240.2 88.7899C239.36 88.7899 238.62 88.2299 238.62 86.9399C238.62 81.1899 243.44 77.6699 251.23 77.6699C261.52 77.6699 263.47 83.2299 263.47 89.6299C263.47 99.9199 257.44 121.52 257.44 131.34C257.44 133.38 258 134.12 259.29 134.12C260.4 134.12 261.24 133.19 261.61 131.15C261.89 129.85 261.98 128.93 261.98 128.46C262.17 127.26 262.72 126.7 263.74 126.7C264.85 126.7 265.69 127.26 265.69 129.39C265.69 138.66 260.59 143.02 252.16 143.02C244.37 143.02 240.57 140.05 240.57 133.29C240.57 128.29 242.24 124.58 242.24 122.54C242.24 121.52 241.5 121.15 240.85 121.15C240.02 121.15 239.55 121.52 239.27 122.63C236.49 135.24 233.71 143.02 222.21 143.02C212.01 143.02 208.4 137.09 208.4 126.15C208.4 104.92 216.46 90.8299 231.11 90.8299C236.67 90.8299 240.47 92.8699 243.07 92.8699C244.09 92.8699 244.46 92.4099 244.65 91.5699C244.93 90.6399 245.11 88.9699 245.11 87.9499C245.11 86.3699 244.74 85.7199 243.72 85.7199V85.7299ZM237.14 95.5599C231.86 95.5599 227.13 109.93 227.13 123.93C227.13 128.47 228.15 130.14 230.38 130.14C233.25 130.14 235.11 126.9 237.15 119.85C238.63 114.01 240.67 103.07 240.67 99.8299C240.67 97.4199 239.84 95.5699 237.15 95.5699L237.14 95.5599Z" fill="#A9D7E6"/>
</svg>
